<?xml version="1.0" encoding="UTF-8" standalone="no"?>
<svg
   xmlns:dc="http://purl.org/dc/elements/1.1/"
   xmlns:cc="http://creativecommons.org/ns#"
   xmlns:rdf="http://www.w3.org/1999/02/22-rdf-syntax-ns#"
   xmlns:svg="http://www.w3.org/2000/svg"
   xmlns="http://www.w3.org/2000/svg"
   xmlns:xlink="http://www.w3.org/1999/xlink"
   xmlns:sodipodi="http://sodipodi.sourceforge.net/DTD/sodipodi-0.dtd"
   xmlns:inkscape="http://www.inkscape.org/namespaces/inkscape"
   width="320"
   height="180"
   id="svg2"
   version="1.1"
   inkscape:version="1.0.1 (3bc2e813f5, 2020-09-07)"
   sodipodi:docname="ic_banner.svg"
   inkscape:export-filename="C:\Users\Tobias\Projekte\sharedphotos\icons\ic_banner.png"
   inkscape:export-xdpi="96"
   inkscape:export-ydpi="96">
  <defs
     id="defs4">
    <linearGradient
       inkscape:collect="always"
       id="linearGradient856">
      <stop
         style="stop-color:#c0e1ec;stop-opacity:1"
         offset="0"
         id="stop852" />
      <stop
         style="stop-color:#48707d;stop-opacity:1"
         offset="1"
         id="stop854" />
    </linearGradient>
    <filter
       style="color-interpolation-filters:sRGB"
       inkscape:label="Drop Shadow"
       id="filter3857">
      <feFlood
         flood-opacity="1"
         flood-color="rgb(0,0,0)"
         result="flood"
         id="feFlood3859" />
      <feComposite
         in="flood"
         in2="SourceGraphic"
         operator="in"
         result="composite1"
         id="feComposite3861" />
      <feGaussianBlur
         stdDeviation="1"
         result="blur"
         id="feGaussianBlur3863" />
      <feOffset
         dx="0"
         dy="0"
         result="offset"
         id="feOffset3865" />
      <feComposite
         in="SourceGraphic"
         in2="offset"
         operator="over"
         result="composite2"
         id="feComposite3867" />
    </filter>
    <linearGradient
       inkscape:collect="always"
       xlink:href="#linearGradient856"
       id="linearGradient858"
       x1="0"
       y1="1104.3622"
       x2="320"
       y2="924.36218"
       gradientUnits="userSpaceOnUse" />
  </defs>
  <sodipodi:namedview
     id="base"
     pagecolor="#343434"
     bordercolor="#666666"
     borderopacity="1.0"
     inkscape:pageopacity="0"
     inkscape:pageshadow="2"
     inkscape:zoom="3.959798"
     inkscape:cx="147.96961"
     inkscape:cy="84.421917"
     inkscape:document-units="px"
     inkscape:current-layer="layer1"
     showgrid="false"
     units="pt"
     inkscape:window-width="2560"
     inkscape:window-height="1348"
     inkscape:window-x="-12"
     inkscape:window-y="-12"
     inkscape:window-maximized="1"
     inkscape:document-rotation="0"
     inkscape:snap-bbox="true" />
  <metadata
     id="metadata7">
    <rdf:RDF>
      <cc:Work
         rdf:about="">
        <dc:format>image/svg+xml</dc:format>
        <dc:type
           rdf:resource="http://purl.org/dc/dcmitype/StillImage" />
        <dc:title></dc:title>
      </cc:Work>
    </rdf:RDF>
  </metadata>
  <g
     inkscape:label="Ebene 1"
     inkscape:groupmode="layer"
     id="layer1"
     transform="translate(0,-924.36218)">
    <g
       id="g3893"
       transform="matrix(2.4971548,-0.50677422,0.50677422,2.4971548,-510.87066,-1515.5689)">
      <rect
         style="fill:#c1e9f6;fill-opacity:1;stroke:#ffffff;stroke-width:0.81462;stroke-linecap:round;stroke-linejoin:round;stroke-opacity:1;filter:url(#filter3857)"
         id="rect3895"
         width="42.238953"
         height="20.274666"
         x="9.7287388"
         y="1009.3231"
         transform="matrix(1,0,0,1.168644,-1.5178571,-170.12698)" />
      <path
         style="fill:#a4ada8;stroke:#5b645b;stroke-width:1px;stroke-linecap:round;stroke-linejoin:round;stroke-opacity:1"
         d="M 9.5535714,39.375 H 49.017857 L 32.678571,22.589287 24.196429,32.187501 17.995898,27.65985 Z"
         id="path3897"
         inkscape:connector-curvature="0"
         transform="translate(0,992.36218)"
         sodipodi:nodetypes="cccccc" />
    </g>
    <g
       id="g3883"
       transform="matrix(2.5317817,0.28754798,-0.28754798,2.5317817,304.47055,-1576.4819)">
      <rect
         transform="matrix(1,0,0,1.168644,-1.5178571,-170.12698)"
         y="1009.3231"
         x="9.7287388"
         height="20.274666"
         width="42.238953"
         id="rect2985"
         style="fill:#c1e9f6;fill-opacity:1;stroke:#ffffff;stroke-width:0.81462;stroke-linecap:round;stroke-linejoin:round;stroke-opacity:1;filter:url(#filter3857)" />
      <path
         sodipodi:nodetypes="cccccc"
         transform="translate(0,992.36218)"
         inkscape:connector-curvature="0"
         id="path3869"
         d="M 9.5535714,39.375 H 49.017857 L 32.678571,22.589287 24.196429,32.187501 17.995898,27.65985 Z"
         style="fill:#a4ada8;stroke:#5b645b;stroke-width:1px;stroke-linecap:round;stroke-linejoin:round;stroke-opacity:1" />
    </g>
    <rect
       transform="matrix(2.4582974,0.67035515,-0.78340651,2.8728745,817.85937,-1944.4514)"
       y="1009.3231"
       x="9.7287388"
       height="20.274666"
       width="42.238953"
       id="rect3889"
       style="fill:#c1e9f6;fill-opacity:1;stroke:#ffffff;stroke-width:0.81462;stroke-linecap:round;stroke-linejoin:round;stroke-opacity:1;filter:url(#filter3857)" />
    <path
       sodipodi:nodetypes="cccccc"
       inkscape:connector-curvature="0"
       id="path3891"
       d="m 39.400408,1017.5101 97.014962,26.4551 -28.91445,-52.21759 -27.285834,17.90929 -12.207617,-15.28682 z"
       style="fill:#a4ada8;stroke:#5b645b;stroke-width:2.54805px;stroke-linecap:round;stroke-linejoin:round;stroke-opacity:1" />
    <g
       aria-label="Shared
Photos"
       id="text23"
       style="font-style:normal;font-weight:normal;font-size:26.6667px;line-height:1.45;font-family:sans-serif;letter-spacing:0px;word-spacing:0px;fill:#ffffff;fill-opacity:1;stroke:none"
       transform="translate(4,5.38265)">
      <path
         d="m 181.52019,1000.4055 q -1.38667,0 -2.48,-0.24 -1.09333,-0.23998 -2.4,-0.63998 -0.8,-0.29334 -1.2,-0.32001 l 0.21333,-4.82667 h 1.70667 l 0.45333,3.46667 q 0.45334,0.42667 1.46667,0.77334 1.04,0.32 2.26667,0.32 2.02667,0 3.06667,-0.90667 1.06667,-0.90667 1.06667,-2.50667 0,-1.04 -0.58667,-1.78667 -0.56,-0.74667 -1.52,-1.28 -0.93334,-0.53333 -2.58667,-1.25334 -1.49334,-0.66666 -2.61334,-1.36 -1.09333,-0.69333 -1.92,-1.84 -0.8,-1.17333 -0.8,-2.8 0,-1.46667 0.77333,-2.61334 0.8,-1.17333 2.26667,-1.84 1.49334,-0.66667 3.46667,-0.66667 1.22667,0 2.16001,0.18667 0.96,0.18666 2.16,0.50666 0.53333,0.18667 0.90667,0.24001 l -0.16,4.48 h -1.62667 l -0.53334,-3.28 q -0.26666,-0.26667 -1.12,-0.50667 -0.82666,-0.24 -1.81333,-0.24 -1.84001,0 -2.80001,0.77333 -0.93333,0.77334 -0.93333,2.24001 0,1.06666 0.56,1.78667 0.58667,0.72 1.44,1.22666 0.85334,0.50667 2.72001,1.38667 1.73333,0.82667 2.82667,1.49334 1.09333,0.66666 1.86666,1.76 0.80001,1.06667 0.80001,2.56 0,1.41334 -0.80001,2.72001 -0.77333,1.30666 -2.4,2.16 -1.6,0.82665 -3.89334,0.82665 z"
         style="font-style:normal;font-variant:normal;font-weight:normal;font-stretch:normal;font-size:26.6667px;font-family:Merriweather;-inkscape-font-specification:Merriweather;fill:#ffffff;fill-opacity:1"
         id="path887" />
      <path
         d="m 192.26687,980.21882 -2.24,-0.29333 v -1.14667 l 4.34667,-0.50666 h 0.0533 l 0.58667,0.4 v 6.18667 l -0.10667,2.26667 q 0.85334,-0.77333 2.34667,-1.46667 1.49334,-0.69333 3.01334,-0.69333 1.68,0 2.61334,0.64 0.93333,0.64 1.30666,1.97333 0.37334,1.30667 0.37334,3.54667 v 7.44001 l 1.86667,0.24 v 1.30669 h -6.37334 v -1.30669 l 1.73333,-0.24 v -7.46667 q 0,-1.57334 -0.21333,-2.45334 -0.21334,-0.90667 -0.8,-1.33333 -0.58667,-0.45334 -1.76001,-0.45334 -0.96,0 -2.05333,0.48 -1.09334,0.48 -1.92,1.12 v 10.10668 l 1.84,0.24 v 1.30669 h -6.21334 v -1.30669 l 1.6,-0.21333 z"
         style="font-style:normal;font-variant:normal;font-weight:normal;font-stretch:normal;font-size:26.6667px;font-family:Merriweather;-inkscape-font-specification:Merriweather;fill:#ffffff;fill-opacity:1"
         id="path889" />
      <path
         d="m 208.40018,996.11218 q 0,-2.50667 2.50667,-3.68001 2.50667,-1.2 6.34668,-1.28 v -0.74667 q 0,-1.25333 -0.26667,-1.97333 -0.26667,-0.72 -0.93334,-1.04 -0.64,-0.34667 -1.84,-0.34667 -1.36,0 -2.45333,0.4 -1.06667,0.37333 -2.13334,0.93333 l -0.66667,-1.38666 q 0.34667,-0.29334 1.28,-0.77334 0.93334,-0.48 2.16001,-0.85333 1.22666,-0.37334 2.45333,-0.37334 1.89334,0 2.98667,0.53334 1.12,0.50666 1.60001,1.65333 0.48,1.14667 0.48,3.06667 v 8.56001 h 1.57333 v 1.17334 q -0.53333,0.13335 -1.36,0.26665 -0.8,0.1333 -1.41334,0.1333 -0.74666,0 -1.01333,-0.24 -0.26667,-0.21328 -0.26667,-0.98662 v -0.88 q -0.8,0.8 -1.97333,1.46667 -1.14667,0.66665 -2.61334,0.66665 -1.92,0 -3.2,-1.09332 -1.25334,-1.12 -1.25334,-3.2 z m 5.60001,2.48 q 0.69333,0 1.6,-0.42667 0.90667,-0.42666 1.65334,-1.01333 v -4.58667 q -2.90667,0 -4.40001,0.90666 -1.46667,0.88001 -1.46667,2.32001 0,1.44 0.69334,2.13333 0.72,0.66667 1.92,0.66667 z"
         style="font-style:normal;font-variant:normal;font-weight:normal;font-stretch:normal;font-size:26.6667px;font-family:Merriweather;-inkscape-font-specification:Merriweather;fill:#ffffff;fill-opacity:1"
         id="path891" />
      <path
         d="m 223.41351,998.80551 2,-0.16 V 987.3655 l -1.92,-0.48 v -1.44 l 3.68,-0.48 h 0.0533 l 0.58667,0.48 v 0.48 l -0.08,2.08 h 0.08 q 0.26667,-0.45333 0.96,-1.17333 0.69334,-0.72001 1.78667,-1.30667 1.09334,-0.61334 2.37334,-0.61334 0.53333,0 0.88,0.13334 v 2.98667 q -0.18667,-0.13334 -0.61333,-0.24 -0.40001,-0.13334 -0.90667,-0.13334 -2.21334,0 -4.10667,1.36001 v 9.60001 l 3.38667,0.21333 v 1.28002 h -8.16001 z"
         style="font-style:normal;font-variant:normal;font-weight:normal;font-stretch:normal;font-size:26.6667px;font-family:Merriweather;-inkscape-font-specification:Merriweather;fill:#ffffff;fill-opacity:1"
         id="path893" />
      <path
         d="m 242.13348,1000.4055 q -3.22667,0 -4.93334,-2.10665 -1.68,-2.10667 -1.68,-5.62668 0,-2.32 0.88,-4.08 0.88,-1.76 2.45334,-2.72001 1.6,-0.96 3.62667,-0.96 2.48,0 3.84001,1.38667 1.38666,1.36 1.46666,3.92001 0,1.62667 -0.18666,2.48 h -9.17335 q 0.0533,2.64 1.22667,4.26667 1.17334,1.6 3.33334,1.6 1.06667,0 2.21333,-0.37333 1.17334,-0.4 1.81334,-0.93333 l 0.50667,1.17333 q -0.77334,0.8 -2.29334,1.38667 -1.52,0.58665 -3.09334,0.58665 z m 2.72001,-9.12 q 0.08,-0.56 0.08,-1.14666 -0.0267,-1.73334 -0.74667,-2.72001 -0.69333,-1.01333 -2.21334,-1.01333 -1.54666,0 -2.48,1.12 -0.90667,1.12 -1.04,3.76 z"
         style="font-style:normal;font-variant:normal;font-weight:normal;font-stretch:normal;font-size:26.6667px;font-family:Merriweather;-inkscape-font-specification:Merriweather;fill:#ffffff;fill-opacity:1"
         id="path895" />
      <path
         d="m 255.84014,1000.4055 q -1.60001,0 -2.93334,-0.79998 -1.33334,-0.80001 -2.13334,-2.45334 -0.77333,-1.65334 -0.77333,-4.08001 0,-2.26667 0.93333,-4.13333 0.93334,-1.86667 2.66667,-2.93334 1.76001,-1.09334 4.13334,-1.09334 1.36,0 2.48,0.29334 v -4.98668 l -2.72,-0.32 v -1.14666 l 4.80001,-0.48 h 0.08 l 0.58666,0.42666 v 20.05336 h 1.54667 v 1.22667 q -0.85333,0.18665 -1.49333,0.29335 -0.61334,0.1066 -1.30667,0.1066 -0.69333,0 -0.98667,-0.24 -0.29333,-0.23995 -0.29333,-1.01329 v -0.85333 q -0.74667,0.90667 -1.97334,1.52 -1.2,0.61332 -2.61333,0.61332 z m 1.06666,-1.89332 q 1.04001,0 1.94667,-0.45333 0.90667,-0.48 1.36,-1.09334 v -9.76001 q -0.21333,-0.32 -1.01333,-0.56 -0.77333,-0.26667 -1.65334,-0.26667 -2.08,0 -3.33333,1.6 -1.22667,1.57334 -1.22667,4.88001 0,2.88 1.09333,4.26667 1.09334,1.38667 2.82667,1.38667 z"
         style="font-style:normal;font-variant:normal;font-weight:normal;font-stretch:normal;font-size:26.6667px;font-family:Merriweather;-inkscape-font-specification:Merriweather;fill:#ffffff;fill-opacity:1"
         id="path897" />
      <path
         d="m 177.28019,1021.2336 -2.08,-0.32 v -1.3334 h 3.54667 q 0.96,0 1.89333,-0.08 1.44,-0.1066 2.72001,-0.1066 3.86667,0.027 5.46667,1.44 1.6,1.4133 1.6,4.2666 0,2.1334 -0.98667,3.7067 -0.98666,1.5733 -2.74667,2.4 -1.73333,0.8267 -4,0.8267 -0.77334,0 -1.57334,-0.027 -0.8,-0.053 -0.98667,-0.08 v 5.8667 l 3.65334,0.2933 v 1.3067 h -8.72001 v -1.3067 l 2.21334,-0.2667 z m 2.85333,9.2266 q 0.74667,0.1334 2.56001,0.1334 2.10667,0 3.41334,-1.28 1.33333,-1.28 1.33333,-4.1867 0,-2.2933 -1.14667,-3.28 -1.14667,-1.0133 -3.57334,-1.0133 -0.85333,0 -1.81333,0.1066 -0.58667,0.053 -0.77334,0.053 z"
         style="font-style:normal;font-variant:normal;font-weight:normal;font-stretch:normal;font-size:26.6667px;font-family:Merriweather;-inkscape-font-specification:Merriweather;fill:#ffffff;fill-opacity:1"
         id="path899" />
      <path
         d="m 193.7335,1019.5002 -2.24001,-0.2933 v -1.1467 l 4.34668,-0.5066 h 0.0533 l 0.58667,0.4 v 6.1866 l -0.10667,2.2667 q 0.85333,-0.7733 2.34667,-1.4667 1.49333,-0.6933 3.01334,-0.6933 1.68,0 2.61333,0.64 0.93334,0.64 1.30667,1.9733 0.37333,1.3067 0.37333,3.5467 v 7.44 l 1.86667,0.24 v 1.3067 h -6.37334 v -1.3067 l 1.73334,-0.24 v -7.4667 q 0,-1.5733 -0.21334,-2.4533 -0.21333,-0.9067 -0.8,-1.3333 -0.58666,-0.4534 -1.76,-0.4534 -0.96,0 -2.05333,0.48 -1.09334,0.48 -1.92001,1.12 v 10.1067 l 1.84001,0.24 v 1.3067 h -6.21335 v -1.3067 l 1.60001,-0.2133 z"
         style="font-style:normal;font-variant:normal;font-weight:normal;font-stretch:normal;font-size:26.6667px;font-family:Merriweather;-inkscape-font-specification:Merriweather;fill:#ffffff;fill-opacity:1"
         id="path901" />
      <path
         d="m 209.86681,1031.9536 q 0,-2.4 0.98667,-4.16 0.98667,-1.76 2.58667,-2.6667 1.62667,-0.9333 3.46667,-0.9333 3.36,0 5.04001,2.1333 1.70666,2.1333 1.70666,5.6 0,2.4267 -0.98666,4.1867 -0.98667,1.76 -2.61334,2.6666 -1.6,0.9067 -3.44,0.9067 -3.36001,0 -5.06668,-2.1333 -1.68,-2.1334 -1.68,-5.6 z m 6.90668,6.2133 q 1.84,0 2.82667,-1.52 0.98666,-1.52 0.98666,-4.5067 0,-2.96 -0.90666,-4.6933 -0.90667,-1.7333 -2.90667,-1.7333 -1.84001,0 -2.85334,1.52 -0.98667,1.52 -0.98667,4.5066 0,2.96 0.93334,4.6934 0.93333,1.7333 2.90667,1.7333 z"
         style="font-style:normal;font-variant:normal;font-weight:normal;font-stretch:normal;font-size:26.6667px;font-family:Merriweather;-inkscape-font-specification:Merriweather;fill:#ffffff;fill-opacity:1"
         id="path903" />
      <path
         d="m 230.64016,1039.6602 q -1.52,0 -2.26666,-0.6933 -0.74667,-0.6933 -0.74667,-2.3733 v -10.24 h -1.92 v -1.2 q 0.13333,-0.027 0.74666,-0.1867 0.61334,-0.16 0.82667,-0.2933 0.42667,-0.24 0.66667,-0.96 0.21333,-0.5067 0.50667,-1.6267 0.29333,-1.12 0.34666,-1.3333 h 1.57334 l 0.0533,3.84 h 4.45334 v 1.76 h -4.45334 v 8.1866 q 0,1.52 0.08,2.1334 0.10667,0.6133 0.4,0.8 0.32,0.1866 1.06667,0.1866 0.72,0 1.57334,-0.1866 0.88,-0.1867 1.36,-0.4 l 0.4,1.2 q -0.64,0.48 -2.08001,0.9333 -1.41333,0.4533 -2.58667,0.4533 z"
         style="font-style:normal;font-variant:normal;font-weight:normal;font-stretch:normal;font-size:26.6667px;font-family:Merriweather;-inkscape-font-specification:Merriweather;fill:#ffffff;fill-opacity:1"
         id="path905" />
      <path
         d="m 236.93349,1031.9536 q 0,-2.4 0.98667,-4.16 0.98667,-1.76 2.58667,-2.6667 1.62667,-0.9333 3.46667,-0.9333 3.36,0 5.04001,2.1333 1.70667,2.1333 1.70667,5.6 0,2.4267 -0.98667,4.1867 -0.98667,1.76 -2.61334,2.6666 -1.6,0.9067 -3.44,0.9067 -3.36001,0 -5.06668,-2.1333 -1.68,-2.1334 -1.68,-5.6 z m 6.90668,6.2133 q 1.84,0 2.82667,-1.52 0.98667,-1.52 0.98667,-4.5067 0,-2.96 -0.90667,-4.6933 -0.90667,-1.7333 -2.90667,-1.7333 -1.84001,0 -2.85334,1.52 -0.98667,1.52 -0.98667,4.5066 0,2.96 0.93334,4.6934 0.93333,1.7333 2.90667,1.7333 z"
         style="font-style:normal;font-variant:normal;font-weight:normal;font-stretch:normal;font-size:26.6667px;font-family:Merriweather;-inkscape-font-specification:Merriweather;fill:#ffffff;fill-opacity:1"
         id="path907" />
      <path
         d="m 255.62684,1037.2602 q 0.26667,0.4 1.12,0.72 0.88001,0.32 1.84001,0.32 1.52,0 2.24,-0.5866 0.72,-0.5867 0.72,-1.6267 0,-0.72 -0.45333,-1.2533 -0.45334,-0.5334 -1.28001,-0.9334 -0.8,-0.4266 -2.32,-1.0133 -2.05333,-0.7733 -3.01334,-1.84 -0.93333,-1.0933 -0.93333,-2.8533 0,-1.1734 0.69333,-2.0534 0.72001,-0.88 1.94667,-1.36 1.25334,-0.5066 2.77334,-0.5066 1.22667,0 2.13334,0.1866 0.93333,0.1867 1.49333,0.3734 0.56,0.1866 0.74667,0.24 v 3.3066 h -1.62667 l -0.53333,-1.9733 q -0.16,-0.32 -0.85334,-0.5333 -0.69333,-0.24 -1.54667,-0.24 -1.2,0 -1.94667,0.5333 -0.72,0.5333 -0.72,1.44 0,0.8 0.37334,1.3333 0.4,0.5067 0.98667,0.8267 0.58666,0.32 1.6,0.7467 l 0.53333,0.2133 q 1.49334,0.5867 2.42667,1.12 0.93334,0.5333 1.54667,1.4133 0.64,0.8534 0.64,2.1067 0,1.9733 -1.54667,3.1467 -1.52,1.1733 -4.18667,1.1733 -1.30667,0 -2.74667,-0.3467 -1.41334,-0.3733 -2.32,-0.7466 v -3.4134 h 1.73333 z"
         style="font-style:normal;font-variant:normal;font-weight:normal;font-stretch:normal;font-size:26.6667px;font-family:Merriweather;-inkscape-font-specification:Merriweather;fill:#ffffff;fill-opacity:1"
         id="path909" />
    </g>
  </g>
</svg>
